<?xml version="1.0" standalone="no"?>
<!DOCTYPE svg PUBLIC "-//W3C//DTD SVG 20010904//EN"
 "http://www.w3.org/TR/2001/REC-SVG-20010904/DTD/svg10.dtd">
<svg version="1.0" xmlns="http://www.w3.org/2000/svg"
 width="260.000000pt" height="260.000000pt" viewBox="0 0 260.000000 260.000000"
 preserveAspectRatio="xMidYMid meet">
<metadata>
Created by potrace 1.11, written by Peter Selinger 2001-2013
</metadata>
<g transform="translate(0.000000,260.000000) scale(0.100000,-0.100000)"
fill="#000000" stroke="none">
<path d="M1985 2587 c-208 -54 -360 -232 -380 -445 -9 -85 -8 -86 220 -86 255
-1 235 19 235 -241 0 -228 0 -227 86 -219 63 5 171 38 195 60 8 8 19 14 23 14
16 0 97 74 134 123 21 29 52 84 67 122 26 63 29 81 29 180 -1 90 -5 121 -24
170 -58 151 -163 256 -306 306 -73 26 -210 33 -279 16z"/>
<path d="M988 2005 c-1 -1 -37 -5 -78 -8 -319 -25 -612 -216 -782 -508 -37
-62 -81 -179 -104 -269 -28 -113 -26 -335 5 -455 41 -160 133 -329 252 -460
87 -95 271 -209 409 -253 126 -40 173 -47 320 -46 117 0 161 5 230 23 287 76
507 249 653 513 59 107 105 283 111 423 2 54 0 63 -25 87 l-27 28 -376 0
c-352 -1 -378 1 -413 19 -21 10 -47 34 -58 53 -19 31 -20 53 -23 412 -2 415
-2 414 -61 434 -16 6 -31 9 -33 7z"/>
</g>
</svg>
